<mxfile host="app.diagrams.net" modified="2024-04-02T16:57:15.194Z" agent="Mozilla/5.0 (X11; Linux x86_64) AppleWebKit/537.36 (KHTML, like Gecko) Chrome/121.0.0.0 Safari/537.36" etag="KcCZb9SFCHv9Zwl_IqXO" version="24.2.1" type="device">
  <diagram name="Page-1" id="GZBFxvJXoxZnEtgETqop">
    <mxGraphModel dx="1434" dy="1955" grid="1" gridSize="10" guides="1" tooltips="1" connect="1" arrows="1" fold="1" page="1" pageScale="1" pageWidth="827" pageHeight="1169" math="0" shadow="0">
      <root>
        <mxCell id="0" />
        <mxCell id="1" parent="0" />
        <mxCell id="wsGLkKjSFnASxqrC0h3r-19" value="" style="curved=1;endArrow=classic;html=1;rounded=0;strokeColor=none;endFill=1;entryX=1;entryY=0.5;entryDx=0;entryDy=0;" parent="1" edge="1">
          <mxGeometry width="50" height="50" relative="1" as="geometry">
            <mxPoint x="330" y="50" as="sourcePoint" />
            <mxPoint x="330" y="120" as="targetPoint" />
            <Array as="points">
              <mxPoint x="350" y="80" />
            </Array>
          </mxGeometry>
        </mxCell>
        <mxCell id="1hYtETjD09zAXA64R3j1-2" value="" style="shape=image;imageAspect=0;aspect=fixed;verticalLabelPosition=bottom;verticalAlign=top;image=data:image/jpeg,/9j/4AAQSkZJRgABAQEAYABgAAD/4RJURXhpZgAASUkqAAgAAAAHABIBAwABAAAAAQAAABoBBQABAAAAYgAAABsBBQABAAAAagAAACgBAwABAAAAAgAAADEBAgAeAAAAcgAAADIBAgAUAAAAkAAAAGmHBAABAAAApAAAAM4AAACA/AoAECcAAID8CgAQJwAAQWRvYmUgUGhvdG9zaG9wIENTNiAoV2luZG93cykAMjAyMzowMzoxNyAyMTozNzo1MQADAAGgAwABAAAA//8AAAKgCQABAAAAlgAAAAOgCQABAAAArQAAAAAAAAAGAAMBAwABAAAABgAAABoBBQABAAAAHAEAABsBBQABAAAAJAEAACgBAwABAAAAAgAAAAECBAABAAAALAEAAAICBAABAAAAIBEAAAAAAABIAAAAAQAAAEgAAAABAAAA/9j/4AAQSkZJRgABAQEAYABgAAD/2wBDAAgGBgcGBQgHBwcJCQgKDBQNDAsLDBkSEw8UHRofHh0aHBwgJC4nICIsIxwcKDcpLDAxNDQ0Hyc5PTgyPC4zNDL/2wBDAQkJCQwLDBgNDRgyIRwhMjIyMjIyMjIyMjIyMjIyMjIyMjIyMjIyMjIyMjIyMjIyMjIyMjIyMjIyMjIyMjIyMjL/wAARCACAAG4DASIAAhEBAxEB/8QAHwAAAQUBAQEBAQEAAAAAAAAAAAECAwQFBgcICQoL/8QAtRAAAgEDAwIEAwUFBAQAAAF9AQIDAAQRBRIhMUEGE1FhByJxFDKBkaEII0KxwRVS0fAkM2JyggkKFhcYGRolJicoKSo0NTY3ODk6Q0RFRkdISUpTVFVWV1hZWmNkZWZnaGlqc3R1dnd4eXqDhIWGh4iJipKTlJWWl5iZmqKjpKWmp6ipqrKztLW2t7i5usLDxMXGx8jJytLT1NXW19jZ2uHi4+Tl5ufo6erx8vP09fb3+Pn6/8QAHwEAAwEBAQEBAQEBAQAAAAAAAAECAwQFBgcICQoL/8QAtREAAgECBAQDBAcFBAQAAQJ3AAECAxEEBSExBhJBUQdhcRMiMoEIFEKRobHBCSMzUvAVYnLRChYkNOEl8RcYGRomJygpKjU2Nzg5OkNERUZHSElKU1RVVldYWVpjZGVmZ2hpanN0dXZ3eHl6goOEhYaHiImKkpOUlZaXmJmaoqOkpaanqKmqsrO0tba3uLm6wsPExcbHyMnK0tPU1dbX2Nna4uPk5ebn6Onq8vP09fb3+Pn6/9oADAMBAAIRAxEAPwD3+iiigAoorG8T+KNK8IaM+qaxceTbhgihV3NI5BIVR3JwfyNAGzWXqfiXQtFlEWqa1p9lKV3BLm5SNiPUAkE18/a/8XPGXiXUpV8OSNpWlkbY18tDMw9WYg4Oc/dxj361xl14UeCNb7WbwbpX2lppSWJwTkk/Q1UYSkm0tieeKnGDestEu59Eal8afAunRqw1f7WWJGy1iZyPr0FY5/aG8Fg/6rVf/Adf/i68R+w6Jb2pn+zySQr1l+bGPWi38M2GtOq6VFLcSPkKkALnIGSPy5+lSdzwFdK9l33W3ffbz2PoHS/jf4G1MsG1KSyKgH/S4SufoRkV0mneOfCeqPGll4j0uWST7kQuUV27/dJB/SvkubwdIGYJPEGU42sSD/KsG/06fT5jHMBkHqKDnqUalP44teqPvMEEZHSivjXw18VvF/hgW8Ftqsk9jE6sbW4VZFZR/CGYFlGP7pFfSPgH4paJ48DW9sslpqMUatJazlctx8xjIPzKD3wD0yBmgzO5ooooAKKKKAMfxP4jsfCnh+61e/fEUK/KgOGlf+FF9yf8a+aL1dV8e6tJ4i1uVFDZEMW4hIUB4VfYevc81u/FfxTdeLfHv/CLW7x/2Xpk4OUzmSbaAxbP90llH49c1EulgC0je4ZoLVhIkIQAMwzgsepAyTj6V04Wh7WWq0POzHG/VoKzs2Zvh+6vdS1Jo4kW10SNTtmRGXzTxxkjd3PTHTrXWv4PtfD2oxLDFZvNNGJVnjJfKnOPmYZ7VozG7/sDToWijisJCzC4CcyMGOd5HJxkgD0rVX+xb2FLm6kmhZInjhiB4bZjbuOOpzzj9K9ilD2aTetr9L/d29D5evU9s5Je62l1tf17779ehkW2jLD4ia78M3EEbW1tJ9nt1iKEsIip2cEE5JPOKzNPh0rStOnh8RWGrTTkrIbWCTy40Q4C+byMMSDxjOMVq27bLCRrqeO004yAT3DLk57KAPmbnHAHueKh8TTWeteOzp7z+Vp1szCeSIAFyqlpJDxgucYzjsK8zHUKdKdoP5f1+R+mcKZpjcxoNYmDUIrSSTV1Hou9r7+f34E00Gq6oln4f0S0slkzhZT5zEDklnkyFAA5xjpS+JpvDlzptvplnpUcs8DEyXfmN5ayfKH8nnJjYqSN3rwBVvSp/wC3by08OxbbDR5JGlmEZ+aRVUsXlY/eYBfZQegqvet4Z04tDZQXerMyFJJZpRFEDnOYwF3dupPrxXDY+qq0ITkqVSLdtbb/ADk27dNFf5vpyd74Et9V0O61XR3EDWCr9sguHwGLk7DEe+drZU4xxjNcCj3Om30c0UjQ3EEgeORDgoynIIPqCK9x/s221rwyYdEuZ4VtHa6vrO7kUlVxgyowA3KoB4PI/HnnPG1q3ig/a49Njgkt4XMU6RGN7uFB9988MwAySPX2FB87j8sUOarR2W67f1v6Hrfwc+I8njbRpbHU5GfWrEbp5SqKJ0Zm2sqrjGBgHjHQ9+PTa+E9C1e58N+IrHVrb/X2U6yhScBwDypx2IyD7GvtzQtZtPEGh2erWLbra6iEiccj1B9wcj8KDxDQrnfHevL4a8Eavqhm8qWK2dYG/wCmrDCf+PEV0VeGftKalNBo2haajssVzNLLIA2A3lhQAR3+/wDpQB4j4XvZF8SwSSM0kk8oDMxyWLMOSfWveH0XWdOuBDFb/aoHbEbJGJonPqOoz29etfN1tcSWlzFcQttkiYOjDsQcg19OeCfFlv4xdtU0m7uLXU4I/PvtHRWMbkfKSrDC/Nwemck12YSt7NtPr3PKzTB+3UZq+nbe36/mPvdVkSV7TyobjTIFERiWMIgfHLjA4bduwfepbTRoLiF4pboCyEbXcd4kZJIUYdMdm74z275plloq3KNdWmpGKzJ2TGVCHHfbtzh+nTP1xXR2t7Z2cMtvaaei28rFmjlcuDkYOB2yOK2zDNsNgF7Pm97sl+L7P8/uPIy/L6uMqe0rr3PXp2Xlb7nt1PLlu5Nb1eS/ntQljZoZ2giHyRIPur/wJtoJ6nOe1UIZI49KvHc+Zc3DrHlvvBc7mbPuQBXoOkeGbXS7kk6jc3GnyFvN09ogqyZUgB3DfMBnI46+lYr/AA5ndv8AQ9Ugde32lTEfp3FeHDM8LUlZT1fr+p+0UMxwMf3UJKMFa2jS06bafk9N9Tm7eykGgX2oAfJvS2Lf3c/Mfzxj8a19L8I6wlvput2emwanbyqzmCfaF6lcMrEbh3BHtXaaZ4abQPCt3bSG31NruZS4WISRxED3zk++BURsdR8lR9ju/LRcJ+6baq+3GAK5sXmioz5KceZ7+RhVzTnclSatfd9Va3k9yhpGk3ehi41C/wBJtIbrUZGhS2aFSkUQxlVGSCH3YOey981Z1Nv7WWI4jc27/aYg6gm12n5lA/ijI4K9wParMELNatJPfJvhObe1VxI7SdBgA8c4+tRQiPSnRx5V1fSoUWMONtuxGPnHc+oOAMHNefLFVqlT2t+Vdr7dPx10t/mcnNzyc3rL8Px6W/p3sfNXimwOn67cxeSIRvJEY6KDyAPbmvoL9nnxIuoeELjQX4m0yQsnP3o5CW/DDbvzrzX4y6RHb6nY6nFPazG8iIl+ygBFdML0HTI2/wA60f2b5nXx1qcAJ2PprORnussYH/oRr6CnLngpdz5mrDkm49mfTdfP/wC0taXbHw9eBS1kgmiyP4JDsPP1C8f7pr6Ar5O+NXjoeK/FX2CylV9K0wtHEy9JZDje/vyMD2Ge9WZnmNdN4G8a6h4F8QDVLBI5Q6GGeCT7siEg4z2OQCD/AEyK5migD6qi8XQeLIEv7QNFbH7tu23dG3fOPU5IPpV6F4GiAeYpJuOfkyMYGP6183eGPF15oUwCSHyyMFSoIIzmvatM8QQ3+nLe+XJHCTtL/eUH8OR+Ir53MMFOM3V3T/r/AIYzbcH5HYxJG7YF7CB6uGH9K0rq2T/li6mziUFpEO4Enj8/asLTxbXbRxtMUkdhtY42EfXqKWG6ZAwUkK3DKe4968txjGOsd/6/yvsdEKtzSEu2yeFXOGkzt+neobueaXSZLcu7hGVxGDgOM8qf0P4VZ8qxWWMNcyKHRX2hM7cjOM5pjv8AZ7nMSAAcrvAbj+VQ/aUndvy0d9P67nTTmlJSXTU56KSKC/n8uFmkGRbc48s9mP0/pUETJbW94SBLcMDFGyncAvO9vpjjPvW5rFoBZnUINtsk+5bnbGzlz3OeQo56cD+mXcrbLozz6U8nkxJi/eQYfHY45AXg9D9e1ehCGl12uvn5f1ax79GrGpFSWz0+7u/6vfzPK/ibKn9nWkeQWBdsegO3/D9Kt/s4Ix8f6i4B2jS3BPoTLFj+RrE8byR3Wk2uomN0e7Luqv1EYwE/Tn/gVel/s5+HWtNC1DxBKoDXsgggOTnYhO7j/e/9Br6DBx5aEV/W58/mEubEyfp+St+Bu/G7xy3hbwuNMtFRr3V0lgy2f3cW3a7DB4PzAD8fSvlGvor4y/C7xL4n8RRa1ohbUEaERtavMqGDb/c3EAg5Jx1zn1r5/wBR0680nUJrDULaS2u4W2yRSLhlPX+XNdJxlWiiigArc0PxRf6HLut3wPTmsOik0mrMD2XSPifZT4+3osZz1jB/ka6Hwj4pXXWms3mE13G7mEqh3SwjkMf9oc59hn1r55zW94P8ST+FfFem6xEdwtpsupzgoQVYf98k1w1MuoTTSViORLY+pGms50iys0ZSJI2lA+TcB3GM+3WokKhmPmDylG5pOwX1NQ/FfxjF4d8EWepWKwTS3lxGbbzEJVlI3E446rx+NcRp3x28MzaCYNX8PTx3QCmSO0I8uZh7k5Azzhs49TXBUyiU5bq33f16m1OVpLm2Oj1bX7izurS9lZ/LRkW1gU7TKC2FHPGW7k8de1Y2umTUWeC1hFtBdzKZo0PHkhgzKfrgCvOtZ+Jl14m12K4mgt7C2h/dW8cMeTDHyobry6q3B4GR0FT3/jKx03TWttLmnuJpEIe5u2LSN6c+2T7DtWrwVWMlGLPcp47DuDurK1rFPxlJP4j8W2mj2G2WaWVbeIZwCzEAc9hk19TeFPD0HhTwvYaJbMzx2se0u3VmJLMfxYk15h8EfALW1s3i3W7ZWvrsA2SSploY/wC+M9Gbt7fWvaK9aEFCKiuh4dWo6k3OW71Cvjf4qW2ty+PNX1TVdJu7OO4uSkLyxMEdEARdrEYb5VHSvsivmz9oXQNTtNZttbm1aS50+8fy4bN2wLVlRchRnkNgkkAe/YmyDxOiiigAooooAKKKKAL15rWq6ja29rfaneXVvbDbBFPOzpEMYwoJwvAA49Ko0UUAFesfBL4fW3i7V59X1Pc1jpksZWBo8pcyHJ2knjC4UlcHO4fj5PX2X8J9Fg0X4a6KkKgNdW63crd2aQBv5ED8KAOzAwMAYpaKKACvnP8AaU1AyazoWn4IEEEs2fUuyj9Nn619GV5j8YPhpceObG1vdLkRdUsVcLFIcLOhwduexBHGeOTn1AB8nUV3/wDwpP4h7sf8I8f/AAMg/wDi60NP+Afji7b/AEm2s7Ees1yrf+gbqAPMKK6fxp4E1rwLqMdrqscZjmBaC4hbckoGM47jGcYIH5c1zFABRRRQAUUUUAFfcXglPL8BeHUOMrpdsOP+uS18O19v+BJRN8PvDbht2dMtsn38tQf1oA6CiiigAooooAKKKKAPFv2krYN4R0i7xzHf+Xn/AHo2P/slfNNfcnijwnpHjHTI9O1mB5raOYTqqSFCHAIByPZjXJf8KK8Bf9A2f/wKf/GgD5Ior63/AOFFeAv+gbP/AOBT/wCNH/CivAX/AEDZ/wDwKf8AxoA+SKK+t/8AhRXgL/oGz/8AgU/+NH/CivAX/QNn/wDAp/8AGgD5Ir6i/Z98Svq/gyfSJjmXSZAinHWOTcV/UOPoBWr/AMKK8Bf9A2f/AMCn/wAa3vC/w88PeDbya50SG4gaZNkqm4dlcDplScZHOD2yfWgDqqKKKAP/2f/bAEMAAwICAwICAwMDAwQDAwQFCAUFBAQFCgcHBggMCgwMCwoLCw0OEhANDhEOCwsQFhARExQVFRUMDxcYFhQYEhQVFP/bAEMBAwQEBQQFCQUFCRQNCw0UFBQUFBQUFBQUFBQUFBQUFBQUFBQUFBQUFBQUFBQUFBQUFBQUFBQUFBQUFBQUFBQUFP/AABEIAK0AlgMBIgACEQEDEQH/xAAfAAABBQEBAQEBAQAAAAAAAAAAAQIDBAUGBwgJCgv/xAC1EAACAQMDAgQDBQUEBAAAAX0BAgMABBEFEiExQQYTUWEHInEUMoGRoQgjQrHBFVLR8CQzYnKCCQoWFxgZGiUmJygpKjQ1Njc4OTpDREVGR0hJSlNUVVZXWFlaY2RlZmdoaWpzdHV2d3h5eoOEhYaHiImKkpOUlZaXmJmaoqOkpaanqKmqsrO0tba3uLm6wsPExcbHyMnK0tPU1dbX2Nna4eLj5OXm5+jp6vHy8/T19vf4+fr/xAAfAQADAQEBAQEBAQEBAAAAAAAAAQIDBAUGBwgJCgv/xAC1EQACAQIEBAMEBwUEBAABAncAAQIDEQQFITEGEkFRB2FxEyIygQgUQpGhscEJIzNS8BVictEKFiQ04SXxFxgZGiYnKCkqNTY3ODk6Q0RFRkdISUpTVFVWV1hZWmNkZWZnaGlqc3R1dnd4eXqCg4SFhoeIiYqSk5SVlpeYmZqio6Slpqeoqaqys7S1tre4ubrCw8TFxsfIycrS09TV1tfY2dri4+Tl5ufo6ery8/T19vf4+fr/2gAMAwEAAhEDEQA/AP1TooooAKKKKACikzVHXNe03wxo93qusahbaXpdpGZbi8vJVihhQdWZ2IAHuaAL9NI5r4F+Of8AwWA+GfgVrrTvh7pt78Q9YjJQXSg2unK3r5jDe4z/AHUwccNXxH8S/wDgo9+0f8WL2Qadri+C9NkyEsfD1uIiB7yvukJ9ww+lAH7qSyrDG0kjLHGgLM7HAUDqSewrj7742fDzS9323x54YtNpAbz9Yt0wT0zl6/n3bQvip40nuJ9T8Sa9ftdAieS61KZ/MB6htzcj2NZF/wDADXbaDzY0WUeiPmgpRlKLnFXS3fRer6H9CR/aH+FYGT8S/B+P+w9a/wDxyt/w/wDETwr4tuPI0PxNo2sz7d/lafqEU7bfXCMTiv5ob74c61YZMlo4A74rNsxrPh28W6sprrT7pAQJ7WRo3APBAZcHmgi5/UfsG4MVG7GM45xTh0r+Zfwt8d/iX4C1Nb/Q/HXiPSbtWDb4NSmAYjpuUthh7EGvp/4Tf8Fdfjd4AeODxHLpvj/T16rqkAguMegliC/+PK1Az9yqK+OPgB/wVM+DXxqurLSdUvbjwD4juSsa2muAC2kkOBtjuV+TqeN+wn0r7EjkWRFZWDKwyrA5BHtQA+iiigAooooAKKKKACkoNcD8c/jV4b/Z++GOs+N/FFyIdN0+MlIFYCW7mIPlwRA9XY8AduSeASADB/aX/ac8Gfst/D6XxN4tuWaWUtDp2k2/NzqE4GfLjHYDjc54UHnkgH8aPjN+0B8V/wBuDxOn9v3jad4aSXdZeGtNZltIRk4Zxn97IAeXb8Ao4qx4j1vxn+2l8UL7x340n2RE+XZaepb7NptsDlYYwfrknqxJJ61t+Lr61+D2ktpHhzV2TxPcx7oLKy0r7XMeOAT0UE/j7V6OGwU669pJWgt3p9yu1dngZjm9HBSWHg1Ks9o+998nGMrJb6r/ADMjRf2ctE8HWC6l4k1CDTrZBkyXDAD3AH8R9hV+/wBc0W706PSvh/4K1zxFqKzKy6k9kYLZxnDAyPjjHINekfsq/DSTxBcXGofF/VZNI1q9kCWd1fx/bpIc8KDESEt09SMsc9hXtHjvwLfeAPFc3h661C21GaIKfMs5CyYb7oP904wSPevusDlGFrR9jyuDkvtRblbum7RXyTa7n5BmnFOZ4OssYpxqxpzVuSUVT5lqlKK5pzWj+OSjKz90+T7GPxdcNejWtIk8LR21wbVUeMyidgASUlOFYAEZ25xmrPirwN8SvBnh/QPE32XRtU0LXllfToHuPs99KsbbXYp0Vc8Bj1r7E8a+DPAni7wX4R0DWfF2o2epaZ58skunWguLaFptvyHcwJK7RkrnvXF/H/4F+KrbWfBWm6MJvEWgweHIY7XXIoytnFGrM0ru3IjUbtxyehFfG5jl9TA1WnFqDb5W1uv6+/c/ubgPjXL+MMvwlGpjuTHKLlXjCTSWkrJRd6VvhbSjK1nHc8rT4f8Ahu28Ltq3if4h6PDdtaiSDRNHhe+unnPWCRiFSMDu5JHpXB6d4Pj8UExWfhSTWHOSfsNvJIfflQRxX0le/Fj4ZfDex0qDwx8INN8VGGIQjxR4iQhNQnjwJZY4SCCu7ODke4Fch42/aa+IvxFij0HTpI/DWl3MmyHQfCNt9n89iQAnyfO5PHy5x7V49up9wsho4181bBJx2UqjhDlS/lhSWje7vyu+9rJL5u8S/s7XHi26l03w74e1EeIlieddIEZ8+VFBLGNCAWIAJwPQ183X3hXULN5AbeTCMVbcpBUg4II7EHtX6z6Z8YpvgB4C0qw8VJZeOPihYXTXWkWt2wlbwzGyFSk9yvzM7bifIyQOMkYxXzf4y8YXnj3xdf8AiTXrDTL3UL+QS3USWiwQykeqpjkjq3U9c5qT8+xvA9bH151srjGnSW3NKTUmusHZvlat8Wl78rcbM+EXjaJirDBHBBr63/ZC/wCCjvxA/ZluLXRtTlm8Z+AAVRtGvZiZrJM8tayH7mB/yzOUPopO6t/45/sl+HdX+Fmk/Fj4fzyafo99dNp994c1SQG4tbxRl/sz4HnQ9T6qMdecfG+saRPo928MqkMp2n60z8rxWEr4KpKjiIOMk2te60dns/kf0wfBv4zeEvj34CsPGHgvVE1TRrv5ScbZYJABuilTqjrkZB9QRkEE9xX86X7IX7XXij9kz4jQaxpks2oeGrt1TWdAaUiK8i6blHRZVBJV/wADlSRX9BXw88f6H8UvBGi+LPDd6moaJq9st1azqeqt1Vh2ZTlWXqCCD0oOQ6OiiigAooooAQ9K/E//AIKNftLzftNfHWHwH4bnaXwX4RuXgQqPlvL8EpNNx1VcFE9gx/ir9Jv2+Pj8P2eP2afE+t2t0tv4h1KP+ydHG4B/tEwILqMg/u03v9VHrX4hfs3Nby+P7U3ZDlnzlznJzTSu7Cbsmz6L8P6L448FeCIrDwtoulzX0w3i6v7rZ5HHB8vuR1GTXtH7PHhS20rUtA03Xc6rDbxyXutOM77yQIzyncMHkjAwRgUzQodJuNUEetzXVrZuCq3Fmiu0TdmKn7y+oBBr2f4H+B9DtvHUWtWXjyAQ6JC+o3JFi4zbrw6vu4AYMQevXjmv1enh4YDDtc0tItLR217WWjb+Z/MdbHVs8x0G4QSlNSlqru3dTlqkuisjiXmk+J/i2BbLTbHQ9MtxlIoF2xWdspyzyP1bA5LHknp6V6nrPwYk+IXjLTdY0nV7K20TxIPNszfybLkqgCuPL/iYbcjB5z1Fcr8RPDXhvU3vvEnw/vJH0eSQi90tlMctrk8MF7wk9P7p4NVG1XV9R8F6HqljJIH8Mu1oXhGWgWRy6OfQEllz64r3IxqThCphpcm8bSWquut+vMo+vnc+ecqFGpWoY6HtbtTvCWklF291rTlUHP0emnKc9JPpuk+I7hls/t1hbysscMzbRLtOAXx2OMkD6V7B4Gs9e1vwp4u1/wAcxvd/D240yWa70yed4ftaxgNGsCqQUUEKu4YBBxzXkHijUbP4R6TZaprNrHqPinUU+0aZok/KQoelxdL/AHT1WPgt1OB14u4+JPiK/wDh14w13XNVuL7WPFc0WiQSSNgR2kbebMI06ImQiADjk+9fNcQ5zRlGWDoJTdrOT1S9PPu/z6f0l4R+EGdZl7DibHVHhqPtIypRV1Op7y97SzjCMeZpvV2fKravn9Oh1L9oDx2Vvr+w8N6bZ2EtzuELfY9JsIVLFI415IGcAdSx5PNa1/8AFrwx8NdJnsfhNpd5balPGYrrxrrQX+0ZFIwy2sakrbqefmHzYI5BrK0+6Hg74P30sXGp+L5zZL28qwgIZyPd5ML6YWsL4cWenS+N9MuNYh+0aNpznUL23Bx5sUPz+X/wIgL+NfmzXU/0Jq4OlVU5TTdGndRgtFLl3bX2vevFKT5bxvZt3O/u/wBk3WdE/wBO8V+JNM8GaEbGC+OsasWfzpZhuMMSL80rrn5vSo9c8B/AfW7ezsdC+J9/oesRwLFcX2o6TK2n3UwHzSLj54gx6dcVw/xS+KGv/GHxVNr3iK5aR2Yi1skY/Z7KLOViiXoABjnqTyam8I/Ck+MPDN7rz+K/Deh2dlK8dxbare+XdkKuQ0cWMyBugA6mo5Ty5YXGQowr5jinCemkFHlTfR3jJy19FfZLc6n9orQ/Hul6H8PfDWo6Zpo8M2Fr9n8Oah4bczWWpyyEZm3k/wCtc4JBA65x3rmP2yPCPwo+JunLD4X0xNK+JGhwW0Ooajp8Qj0/WmEYFyoVekkb8h8Ddh+ele//ALLvhzXNX+BnifStc12w0Dwzq8pXwxdarD5sttdAlZbm3Q8ogBK7sjDdCOc3fHP7JXw78O+Hb3S/CuparB8RdNiW9sbvWJh9m1QqN5RFHybXGQvvxzzXm1MdhaM/ZzqJSula63auk+1+l9z82zell+OvleOdp03NRlCLteTTc5dkm7TSb15npZW/GjWNLl0a/kt5VwynFfoV/wAEh/2rJPBHj2X4P+ILtjoPiOUzaM0jEi1vwOYh2VZVH/far/eNeBfti+AtAttX0TxZ4Xi+yWOvWIuL3SiTu0vUEYpc2+DyF3AOuez47V87+F/Ed94O8SaVr2mTG31PS7uK9tZVyCssbh1P5gV3n4PiMPVwlaeHrK04tprzR/UpRXE/BX4mWfxl+E3hPxvYoI7fXNOivPKB/wBW7L86f8BcMv4UUHOdtRRSHrQB+Nn/AAWd+Mb+JvjL4c+HlrcbtP8ADdj9suY1IIN3cc8+6xKn/fZr4I8Ia3NoOrJdQymF05D/AN33r0L9r7xn/wALB/af+KGuq/mRXGv3UcLE5zFE5ij/APHUWvIo32E+4waAP2q1r4ReGNcttBg0XXLTwx4iOl2j3Wma65hivGaFWE8E3KkOSeM9QenSpvFfgZ/gt4Dn0rUL22uPE/iFkMsNnJuWCzQ7gC3cu4HHTC141+y3+1N8Nv2iPhx4L+F/xFu7zw98StJSPR9G1qK2aePUI+FhRioOGxgFWwOMhuSK+hviDpnh3Q0svA3i6W+tdc0S3WKz8SwxCSO4hYllSSL72xckAgkjB+lfpuT41YqNKkpOXLbmja7stmnu43tprL1SP5+4myV5fUxGJ9nGLqXUJ81o3lvFx2jJxvaV1D0bVvONLstT8JQ2fiLSrmC9gAHneQd4iz96OeM9AenPynPWvdfhZ4VhXxho3jDwlam68Ia2j2mraT/rTYylSSjKesYcKQx6A/TPNeBvhPH4B1u21/xFqEN1YFFlsbOwk3NqCsMqXBHyxEdQwyemK77S/HP9gC5j8OaVYeHbe4fzJI7SL7zdATnjp6AV8rxf4hZRlEpYSM3Uq2s1FXVn0lqlzR3TvdPpqzo4Q4OxtfkxWJj7OCakk37yat70dH7s9VKL3Wt3aJ8F61D4l+NHxh1OG3gkvvEes6pLEkJ/5ZAOQAf7qIo57ACul/aX8MQeAvF+ieENOmWfR9I0aBbe5jYMl1K+WnmBHBJkJHttx2r6J8YfA7wR8Q/Ec3iGW+1fwjq91u/tA6EV8u93ffIB+4zc56g56Vf8b/Bn4ceLfh3ovhWzsNQ0V9EV10/Vg6yzjexZxL/fVmOcdj0xX5jDjHJJQhN17X6NSuvVJO35drrU/wBHIccZYq2EnHmjTiuVwUfgbVua9/eUUuWKir8spN62ifE3iTXE1qLQ4YgyRadpyWYQ9mDMzH8S2a7L4R+B7jxj4P8AinNYwyXGoabokc0MUSlmYecDIAB1OwGvQIP2H/FeqSsNK8U+HbuNDlzcNJA4X+8VKnj6V738EvgHefs6eDvE3iG01lPEvijUIkswmmRlre3G7qAfmcjrk4HtXuTzbBfVXiqVRTjZyXK7tpb2W/8Awdz2c24uyqjgeXAV1Oq3Hljrq+dN300TV73/ADPnX9nP4L2PiI+LE+INnceH/D93pYgtbu6QxXKXXmKyPChGThQ2cjHOO9Xr/wDY/wDCVxcSJafFSNIiNsb3mjPkfUg/rXrN5p2t6jO91dWeoXk0jZaeSJ3LH64qA+FtcukaRNJu1iXOZZojGg/4E2BX5DU44zWvW/2agox7NSk7ebTX4I+UqZ/jquJniKeI9mpW91crirK2nOnq+u1+xu+O/CNvpmo+DdG024iu9N/sa3tbWe2A8tljXa7ADplgSfc81x1zr0GoaZp+n6m8rrZ3OEvQctHbn7yj6H5h6c12kWj23gfwteareava6lrssbWenabYzCY2zyDDSNj+IDPA4ye9ZuneErLwPYnWfEdvHq+oQoJY/D6TKPIPG17rnOM4+ReemeK8qrQq4nETxDioupeUuqSdnrbXVptR+K1jx8LUhCCUm5NOyezlLW7V9OqTlpG9/I+VP28Pg5qOiaP/AGtdWIhiUiHz44Qsd0jEmOYMBhmOcHPP5V+at1GYriRD2Yiv3K8W6Z4g+NfgbxHo/ijxNp9laeIrCU2WiXgw0jIpaJoF/wCWWGUAMTk89a/EfxVp82m61cwToY5o5GR1PZgcEfmDX6/kNZVcJyxcmouy5rX5d1s302vZ2t6n5fxHRnTxvPUtzSSb5b2utHa6XbpdXvtsfsv/AMEaviDP4n/Zr1jw5cSGR/DetSRQ7myVhmRZVHsN/mfrRXh//BD/AFyVfFXxT0cyDyHsrK7CZ53B5FJx9GH6UV9GfLH601l+KNSl0bw1q2oQIZJ7WzmnjQDO5lQsBj6itSq2oX1vpdlcXt5cR2tpbxtNNPM4RI0UZZmJ4AABJJ9KAP5atUvpNT1O8vJv9dcTPM+f7zMSf1NVa9V/am8XeEfHf7QnjzXvAmnJpnhS91OSSyhiXYjgYDSqv8KyMGkC9g+OOleVUAdN8NPH+q/Cv4geHvGGiMi6tol7FfW/mLuQsjA7WHcHofYmv3G+GP7aPwP/AGoPB1rqE66enjK1g3Hw1rUYF0k+0EpETxKhbONp5AyVHSvwTrvPhJ40Pg3xRp96r+VLbTLLFL3RgcgilKVWMZOhLlnZ2fZ2MK1GnXg6dWKkn0auvuZ+z994gudc1CW9un3zSkZA4CgcBQOwHQCuosvCeq3+i2N7Z2E0/nSSIwTkjaRj6DmvAvhj8XNI+JmlRXNncRpqJQNPZ7vmB7snqCa9EtdVnh+5cTRf7sjL/Wv5txOElhq06eNg+brrZ3ve92ne/fre5jSxMoPlloz0BvC3iCywZtHvF9xET/Ktbw34budQvWN9az2tlbRtPPLJGVAVeo57muDtPE+pwgFNSvFA/uztgfrXVaP8T/EOnsD9ukuoAQHjuR5iEf3Tn1rgp0cuVaMqynyrp7rv6/Dp3trY9ulipNWRbmWfxFfzyWkASKNCcL8qxoO7H6etW/D2q3WnaPriW8jpHLCqllJG3JxkenBNPvdfste0CODSrddNuklLz2MJ+W4z0IJ5OOflP4Vz63bpFLAHaNCwMkfTJHrXBV/2KuqtOpzNp+8tE3KLVlomrXs72fZJWv6kJqrGx0Xg7xnd+GtSiMkzyWLELNExJG31HuP/AK1cL4/n8Q+KPEOv2Gp6tNcTachura1HyQywDksqjgHaQe+ea3Y7aW4XckbMpONx4X861LnwPe65YNqNtc21zq1paSwQ2cMoM06sCArewyTXp5TXxWKprL25Sp3uld221VuvdLXVaL3me3llejhMRzzSTate2z6eiezene+h5H4K1HSvDcOoeIrgpLqlmm3S7Ujjz26TMPRBz9cVk+FNDPivxfBHqLSeXJvvr24Y4ZoVBeRyffGM981fk8PReBblZfEqxPqcChodEWQOxbHymcjhV74ByelN0S51XXYNe1KedNM0m7Aj1DWHXComQRBF6lsDCL6c4r26NFr2dKrH4W24/i3Lt0Wu0Vd26/qity1K1KXxJJS6dko97XbVt5Oyv053Wdel1/xNLqnRpJgYEC4Eca8RoB2Crjivy3/aGhgi+I+s+QAEN1KRj3Y1+jPj3xJD4a0u5nso3ee6nFhplux/eSzSHan4j7x9MV+bPxusLnT/ABvqVvdOJLiCd45HHQsDhj+ea/QuE4S/fVZv4mvna93+J8FxxKC+rUIRtyp/K9rL7os+5v8AgiHas/xS+JlwCNkejW0ZHfLTkj/0E0V6P/wRF8FNa+CfiT4skjdRe39tpsTleGEUbO2D35lWiv0E/Kz9NjwK/Mr/AIK9ftczeGdJi+CXhm5MV9qkCXfiG6jbBjtmJ8u19jJgO3+ztHRzX27+1B8ftK/Zo+C3iDx1qYSaW0j8jT7Nyf8AS7x8iGLjnBPLHsqse1fzn+PvHOtfEzxnrHirxFevqGt6vcvd3Vw/8TsegHZQMADsAB2oAwDRRRQAUoYqQQcEdxSUUAehfDf4oal4T1OFkuJUVWGHR9rL9D2r9Gvgz8TpvGvhe2mtddtNZ1Hb+8sb5fs8o9lk6N9SK/KRWKkEHBHeuv8AB/xN1fwjOj2ty6bTkYPSvIzPLaWZ0fZz0a2dk/8Ag29GvUwrUlVja9mfsd4V8VahZSR3gtJdJu0fD2tyUk3fiMhlNeg6t4k07XvCHm2NjHpmoJdrJfW8JPluNpAkQdueo7Zr82/hl+3BdxRQWuuLFeRKApaThx/wKvTPHv7VOian4Rt7nwxeyWPiqyvYbu0inG6GVQSJY3I6qykg59j2r80q8O5jQk6EIqUJ6XWqV+uvvR832vds5YRrU3Zq6Prm11BoWSRGKOh3KwPQ+teqa/4/tdP1SGFNEsL1kgiMtzcR/PKxUEsMcV83fDv4jab8SvClvr2lBooJH8ieB+trPjJiY/qD3Fe0at4p8N3/APZ9jcWks89paRwtqlnN8zsByCmMMB0z1r5KnTr4KNai5KnO8dJK+qvps7b3vtZb2Z30sRraRpeIPE0fiJRP5/kYIWPT0QBI19iOpzWXbvKk6GBmWbcNpTrnPGKzri2tYYvOstQS8iX7ysuyRQeh29/wqPUfEMnhDRI9ZUKbuV9mnowyHk/v47hf5189Ww9fGYm9R+89W73077tadEtNkktj6XAKeLqQw9FXlLRL+unV+R2PxV8H2MLm+0jwrouva7HCLi/jkvD9pYgZZjbr9/69favOLH4hWHxetNP8G67YWuiEy40q90xSkMFwRhVli6FT0z2JryHxR8QJ/hhrmn67eR32p65LqsEMNrZTBLu8uHbJQO3C8biSeAAa1/jD8QX8UXOq63aaTa6PcvE0dtBZDDvOwIQswxufcc7sDoTX6XPFKa9rCPKpPlcLL3kt22kmn3b66p6H65hMudBLDzk5unHmVS7vB9Ek207rZLS2klZo8mS6g8XfFTUdSS6jvNA8CiexWWPmKfUzkTup6MI0AUH1fivgL41auuq+NNQmU58yZ3P4tmvtTxXDZ/Ab4DWvh+3nD3TRFZ52OWmmY7pnJ92OPwrwj9iH4EXH7T/7UWjWFxbGfw3pc41fWZDkL9njYERk46yPtTHoWPavueH6MYwqVoX5G+WN9+WN9fm22fnnFeInKrSw1W3tEuadtuaSWn/bsUl6H7A/sA/ByX4I/sq+CtEu4jDqt7AdXvkbqs1x8+0+6oUX/gNFfQ6qFAAAAHQCivrD4M/KD/gtxqHi2TWfh1ZNZ3CeBooJp1ukXMMmoM2CjnsyxKpUHs7474/Lg81/Utr/AIc0rxXpc+ma1plnq+mzjEtnfwLNFIPdGBB/Kvyr/wCCp37Hfwg+DXw3sPHnhCx/4RLxBeanHYro9kx+yXasrM7LGf8AVlQuflIHbHOaAPy9ooNFABRRRQAUZxRRQAquVOQSD7VYj1G5jxtmcY96rUUAfev/AASg+PTeHf2gJPAeuzJPoXjG0NqkNwN0YvIgZIjg8ZZQ6fUrX6oftAReF/hf8EPGniWSwt9Pt9LsHvJGto1RpCnKx5xnDNgY96/na+HnjG8+Hnjzw74o09il7o2oQX8RHdo5A4H44xX6Sftzf8FKfhr8eP2b9V8E+CBrSa3q9xbC4W9sxFHHCjiRxv3HJyir05ya5q+Go4lONaCd1b5Pz3Qmk9z6O/Zb+K/wY+PsME9t4uRNejRWufC2pSLbTRv32k485PdM9ecV6R8ToPh78KPEEvxD+JfjyxttHsMNYabPsRU28pHHEpLSY7KoJJ5NfzziRlZWDEMpyCDyKmvNQudRlEl3czXTgbQ8zlyB6ZNeXSyPLqCUadJKzT3erW17vW3RO6R2YXF1sFzfV5crkrN6Xs97PdX8j7r8UftT6T46+J83iTQvD99fywm8Tw/o8jBmnubibCSuf4MR9R1GSBXoHhSbxJomnv4o+Kmr2dnelSLTQrMKLfTwfoSZJSOM5IUd6/N/SPEF1pEyyQyMpU5BBII/EVv6r8T9Y1a3EU11M6gY3SSFj+tceIyDD1WlTfLHrpd23sm37qu9dG/lofV4PirFYeLdVc8umto3sleSS95pJW1S02vqerfH34pX/wAXvGtto2hQT3ktxMlnZWVuNzyOzbURQOrEkdO5r9jf2Dv2VbX9lj4J2OmXdvGfGesBL7X7pW3HzyPlgDf3YgdvHBbe38VfOP8AwTA/YQfwLZWfxi+ImnsPFV5H5mg6XdJzp8Dr/wAfDqekrgnaDyinn5m+X9IBX0lKlCjBU6atFaJHx9atUxFWVaq7yk7t+bFooorUxCvg/wD4KkfsnfEn9pTR/B9/4De01C38Pi5a60a5uktmcybMTIzkIdoQggsOvGa+8K+ev26P2dNe/ad+A9/4S8NeIH0LWI7hL2GJ5GS2vygP+jzledhzkHBAZVJFAH8+firwvf8Ag3XbzR9USKPULVykqwzpMoPoHQlT+BrIroPH/gLXvhf4z1fwp4n06TSte0qc293aSEEo454IJDAgghgSCCCODXP0AFFFFABRRRQAUUUUAFGaKKACiiigAr7d/wCCUf7Num/G746XniPxHYLf+G/B8KXn2edN0U967YgRweGC7Xcj1RQRg18RCv3P/wCCRnw6Twb+yTZ6w8Pl3nibU7nUHY9WjVhDH+GIif8AgRoA+2Mc5paKKACiiigAqrqmo2+kaddX93IIbS1ieeaQ9ERQWY/gAatVxXxr0W+8RfB3xzpWmI8uo3uh3tvbxx53PI0DqqjHOSSBQB/OT8ePifd/Gb4x+MfG167NJrWpTXMasc+XCWxEg9ljCL+FcFT5YZIJHjlRopEYq6OMMpBwQR2NMoAKKKMUAFFFFABRRRQAUUUUAFFFFAAK/ox/YV06PS/2QPhNBGcqdCglJAxy+XP6sa/nOFf0nfsl3MN3+zH8LpYGV4m8PWWGUYB/dKDQB61RRRQAUUUUAFJilooA+Bv2q/8Agk34S+N3irUvF/gjXP8AhBvEWoyNcXtnJb+dp9zMeWkCghomY5LEbgSc7QSSfmNf+CJ/xTN1sPjfwmIM480G5Jx648qv2VooA/LDwd/wRAgWMN4r+KUjSZ5h0fSwBj/fkc/+g16B4g/4Is/Cyfwnd22i+KvE1p4h8tjbX95LDLAJMfL5kSxglc9cMDg9a/Q+igD+XPxz4O1H4eeM9d8L6wiR6ro17NYXSxtlfMjco209xkcH0rDr6R/4KL6AfDv7Z/xPh27UuL+O8Xj/AJ6wxuT+bGvm6gAooooAKKKKACiiigAFf0Jf8E4/GMHjL9jP4bzwuXews30ybd1DwStHj8gv51/PaDiv1u/4Io/F0ah4S8cfDS6lJm064TW7JWP/ACykxHKB7K6xn/tpQB+nVFFFABRRRQAUUUUAFFFFABRRRQB+Zf7e3/BOH4lftE/tB3fjjwVPoS6Xe6fbRTLqF20MizRqUPARsgqF5z6186f8Ocfjz/z8+FP/AAZyf/Gq/b+igD8QP+HOPx5/5+fCn/gzk/8AjVH/AA5x+PP/AD8+FP8AwZyf/Gq/b+igD8QP+HOPx5/5+fCn/gzk/wDjVH/DnH48/wDPz4U/8Gcn/wAar9v6KAPxA/4c4/Hn/n58Kf8Agzk/+NUf8Ocfjz/z8+FP/BnJ/wDGq/b+igD8QP8Ahzj8eP8An58Kf+DOT/41Xs/7IP8AwT4/aC/Zi+PPh7xqk3hmfSkY2erWsOpvums5MCQAGMAkEK4H95BX6sUUAJS0UUAFFFFAH//Z;" vertex="1" parent="1">
          <mxGeometry x="390" y="40" width="138.72" height="160" as="geometry" />
        </mxCell>
        <mxCell id="1hYtETjD09zAXA64R3j1-3" value="&lt;font style=&quot;font-size: 18px;&quot;&gt;BCI Device&lt;/font&gt;" style="rounded=0;whiteSpace=wrap;html=1;" vertex="1" parent="1">
          <mxGeometry x="40" y="60" width="170" height="120" as="geometry" />
        </mxCell>
        <mxCell id="1hYtETjD09zAXA64R3j1-5" value="" style="curved=1;endArrow=none;html=1;rounded=0;entryX=0;entryY=0;entryDx=0;entryDy=0;exitX=0.946;exitY=0.263;exitDx=0;exitDy=0;exitPerimeter=0;dashed=1;startArrow=classic;startFill=1;endFill=0;strokeWidth=3;" edge="1" parent="1" target="1hYtETjD09zAXA64R3j1-2">
          <mxGeometry width="50" height="50" relative="1" as="geometry">
            <mxPoint x="120" y="40" as="sourcePoint" />
            <mxPoint x="285" y="39" as="targetPoint" />
            <Array as="points">
              <mxPoint x="260" y="-40" />
            </Array>
          </mxGeometry>
        </mxCell>
        <mxCell id="1hYtETjD09zAXA64R3j1-7" value="&lt;font style=&quot;font-size: 16px;&quot;&gt;EEG Signal&lt;/font&gt;" style="edgeLabel;html=1;align=center;verticalAlign=middle;resizable=0;points=[];" vertex="1" connectable="0" parent="1hYtETjD09zAXA64R3j1-5">
          <mxGeometry x="0.2911" y="-14" relative="1" as="geometry">
            <mxPoint x="-8" y="36" as="offset" />
          </mxGeometry>
        </mxCell>
        <mxCell id="1hYtETjD09zAXA64R3j1-9" value="" style="group" vertex="1" connectable="0" parent="1">
          <mxGeometry x="350" y="360" width="230" height="140" as="geometry" />
        </mxCell>
        <mxCell id="1hYtETjD09zAXA64R3j1-8" value="" style="rounded=1;whiteSpace=wrap;html=1;" vertex="1" parent="1hYtETjD09zAXA64R3j1-9">
          <mxGeometry x="-10" y="-20" width="240" height="160" as="geometry" />
        </mxCell>
        <mxCell id="wsGLkKjSFnASxqrC0h3r-1" value="&lt;div&gt;E&lt;/div&gt;" style="ellipse;whiteSpace=wrap;html=1;fillColor=#f8cecc;strokeColor=#b85450;" parent="1hYtETjD09zAXA64R3j1-9" vertex="1">
          <mxGeometry x="20" y="20" width="40" height="40" as="geometry" />
        </mxCell>
        <mxCell id="wsGLkKjSFnASxqrC0h3r-2" value="&lt;div&gt;I&lt;br&gt;&lt;/div&gt;" style="ellipse;whiteSpace=wrap;html=1;fillColor=#dae8fc;strokeColor=#6c8ebf;" parent="1hYtETjD09zAXA64R3j1-9" vertex="1">
          <mxGeometry x="20" y="90" width="40" height="40" as="geometry" />
        </mxCell>
        <mxCell id="wsGLkKjSFnASxqrC0h3r-10" value="" style="curved=1;endArrow=oval;html=1;rounded=0;strokeColor=default;endFill=1;" parent="1hYtETjD09zAXA64R3j1-9" edge="1">
          <mxGeometry width="50" height="50" relative="1" as="geometry">
            <mxPoint x="21" y="112" as="sourcePoint" />
            <mxPoint x="20" y="40" as="targetPoint" />
            <Array as="points">
              <mxPoint y="80" />
            </Array>
          </mxGeometry>
        </mxCell>
        <mxCell id="wsGLkKjSFnASxqrC0h3r-11" value="" style="curved=1;endArrow=classic;html=1;rounded=0;strokeColor=default;endFill=1;entryX=1;entryY=0.5;entryDx=0;entryDy=0;" parent="1hYtETjD09zAXA64R3j1-9" target="wsGLkKjSFnASxqrC0h3r-2" edge="1">
          <mxGeometry width="50" height="50" relative="1" as="geometry">
            <mxPoint x="60" y="40" as="sourcePoint" />
            <mxPoint x="61" y="112" as="targetPoint" />
            <Array as="points">
              <mxPoint x="80" y="70" />
            </Array>
          </mxGeometry>
        </mxCell>
        <mxCell id="wsGLkKjSFnASxqrC0h3r-21" value="" style="curved=1;endArrow=classic;html=1;rounded=0;anchorPointDirection=1;shadow=0;exitX=0.186;exitY=0.101;exitDx=0;exitDy=0;exitPerimeter=0;entryX=0.824;entryY=0.099;entryDx=0;entryDy=0;entryPerimeter=0;" parent="1hYtETjD09zAXA64R3j1-9" source="wsGLkKjSFnASxqrC0h3r-1" target="wsGLkKjSFnASxqrC0h3r-1" edge="1">
          <mxGeometry width="50" height="50" relative="1" as="geometry">
            <mxPoint x="20" y="30" as="sourcePoint" />
            <mxPoint x="60" y="40" as="targetPoint" />
            <Array as="points">
              <mxPoint x="20" y="10" />
              <mxPoint x="40" />
              <mxPoint x="60" y="10" />
            </Array>
          </mxGeometry>
        </mxCell>
        <mxCell id="wsGLkKjSFnASxqrC0h3r-32" value="&lt;div&gt;E&lt;/div&gt;" style="ellipse;whiteSpace=wrap;html=1;fillColor=#f8cecc;strokeColor=#b85450;" parent="1hYtETjD09zAXA64R3j1-9" vertex="1">
          <mxGeometry x="160" y="20" width="40" height="40" as="geometry" />
        </mxCell>
        <mxCell id="wsGLkKjSFnASxqrC0h3r-33" value="&lt;div&gt;I&lt;br&gt;&lt;/div&gt;" style="ellipse;whiteSpace=wrap;html=1;fillColor=#dae8fc;strokeColor=#6c8ebf;" parent="1hYtETjD09zAXA64R3j1-9" vertex="1">
          <mxGeometry x="160" y="90" width="40" height="40" as="geometry" />
        </mxCell>
        <mxCell id="wsGLkKjSFnASxqrC0h3r-34" value="" style="curved=1;endArrow=oval;html=1;rounded=0;strokeColor=default;endFill=1;" parent="1hYtETjD09zAXA64R3j1-9" edge="1">
          <mxGeometry width="50" height="50" relative="1" as="geometry">
            <mxPoint x="161" y="112" as="sourcePoint" />
            <mxPoint x="160" y="40" as="targetPoint" />
            <Array as="points">
              <mxPoint x="140" y="80" />
            </Array>
          </mxGeometry>
        </mxCell>
        <mxCell id="wsGLkKjSFnASxqrC0h3r-35" value="" style="curved=1;endArrow=classic;html=1;rounded=0;strokeColor=default;endFill=1;entryX=1;entryY=0.5;entryDx=0;entryDy=0;" parent="1hYtETjD09zAXA64R3j1-9" target="wsGLkKjSFnASxqrC0h3r-33" edge="1">
          <mxGeometry width="50" height="50" relative="1" as="geometry">
            <mxPoint x="200" y="40" as="sourcePoint" />
            <mxPoint x="201" y="112" as="targetPoint" />
            <Array as="points">
              <mxPoint x="220" y="70" />
            </Array>
          </mxGeometry>
        </mxCell>
        <mxCell id="wsGLkKjSFnASxqrC0h3r-36" value="" style="curved=1;endArrow=classic;html=1;rounded=0;anchorPointDirection=1;shadow=0;exitX=0.186;exitY=0.101;exitDx=0;exitDy=0;exitPerimeter=0;entryX=0.824;entryY=0.099;entryDx=0;entryDy=0;entryPerimeter=0;" parent="1hYtETjD09zAXA64R3j1-9" source="wsGLkKjSFnASxqrC0h3r-32" target="wsGLkKjSFnASxqrC0h3r-32" edge="1">
          <mxGeometry width="50" height="50" relative="1" as="geometry">
            <mxPoint x="160" y="30" as="sourcePoint" />
            <mxPoint x="200" y="40" as="targetPoint" />
            <Array as="points">
              <mxPoint x="160" y="10" />
              <mxPoint x="180" />
              <mxPoint x="200" y="10" />
            </Array>
          </mxGeometry>
        </mxCell>
        <mxCell id="wsGLkKjSFnASxqrC0h3r-37" value="" style="curved=1;endArrow=classic;html=1;rounded=0;entryX=0.979;entryY=0.367;entryDx=0;entryDy=0;entryPerimeter=0;exitX=0.016;exitY=0.372;exitDx=0;exitDy=0;exitPerimeter=0;" parent="1hYtETjD09zAXA64R3j1-9" source="wsGLkKjSFnASxqrC0h3r-32" target="wsGLkKjSFnASxqrC0h3r-1" edge="1">
          <mxGeometry width="50" height="50" relative="1" as="geometry">
            <mxPoint x="166" y="30" as="sourcePoint" />
            <mxPoint x="60" y="31" as="targetPoint" />
            <Array as="points">
              <mxPoint x="112" y="50" />
            </Array>
          </mxGeometry>
        </mxCell>
        <mxCell id="wsGLkKjSFnASxqrC0h3r-31" value="" style="curved=1;endArrow=classic;html=1;rounded=0;entryX=0.059;entryY=0.282;entryDx=0;entryDy=0;entryPerimeter=0;exitX=0.946;exitY=0.263;exitDx=0;exitDy=0;exitPerimeter=0;" parent="1hYtETjD09zAXA64R3j1-9" source="wsGLkKjSFnASxqrC0h3r-1" target="wsGLkKjSFnASxqrC0h3r-32" edge="1">
          <mxGeometry width="50" height="50" relative="1" as="geometry">
            <mxPoint x="60" y="30" as="sourcePoint" />
            <mxPoint x="165.20000000000005" y="30.04000000000002" as="targetPoint" />
            <Array as="points">
              <mxPoint x="110" y="10" />
            </Array>
          </mxGeometry>
        </mxCell>
        <mxCell id="1hYtETjD09zAXA64R3j1-10" value="" style="curved=1;endArrow=classicThin;html=1;rounded=0;entryX=0;entryY=0;entryDx=0;entryDy=0;exitX=0.946;exitY=0.263;exitDx=0;exitDy=0;exitPerimeter=0;dashed=1;startArrow=none;startFill=0;endFill=1;strokeWidth=3;" edge="1" parent="1">
          <mxGeometry width="50" height="50" relative="1" as="geometry">
            <mxPoint x="120" y="200" as="sourcePoint" />
            <mxPoint x="390" y="200" as="targetPoint" />
            <Array as="points">
              <mxPoint x="260" y="280" />
            </Array>
          </mxGeometry>
        </mxCell>
        <mxCell id="1hYtETjD09zAXA64R3j1-11" value="&lt;font style=&quot;font-size: 16px;&quot;&gt;VTS Stimulation&lt;/font&gt;" style="edgeLabel;html=1;align=center;verticalAlign=middle;resizable=0;points=[];" vertex="1" connectable="0" parent="1hYtETjD09zAXA64R3j1-10">
          <mxGeometry x="0.2911" y="-14" relative="1" as="geometry">
            <mxPoint x="-73" y="-10" as="offset" />
          </mxGeometry>
        </mxCell>
        <mxCell id="1hYtETjD09zAXA64R3j1-17" value="&lt;font style=&quot;font-size: 18px;&quot;&gt;Virtual BCI Device&lt;/font&gt;" style="rounded=0;whiteSpace=wrap;html=1;" vertex="1" parent="1">
          <mxGeometry x="40" y="360" width="170" height="120" as="geometry" />
        </mxCell>
        <mxCell id="1hYtETjD09zAXA64R3j1-18" value="" style="curved=1;endArrow=none;html=1;rounded=0;entryX=0;entryY=0;entryDx=0;entryDy=0;exitX=0.946;exitY=0.263;exitDx=0;exitDy=0;exitPerimeter=0;dashed=1;startArrow=classic;startFill=1;endFill=0;strokeWidth=3;" edge="1" parent="1">
          <mxGeometry width="50" height="50" relative="1" as="geometry">
            <mxPoint x="120" y="340" as="sourcePoint" />
            <mxPoint x="390" y="340" as="targetPoint" />
            <Array as="points">
              <mxPoint x="260" y="260" />
            </Array>
          </mxGeometry>
        </mxCell>
        <mxCell id="1hYtETjD09zAXA64R3j1-19" value="&lt;font style=&quot;font-size: 16px;&quot;&gt;Model Activity&lt;/font&gt;" style="edgeLabel;html=1;align=center;verticalAlign=middle;resizable=0;points=[];" vertex="1" connectable="0" parent="1hYtETjD09zAXA64R3j1-18">
          <mxGeometry x="0.2911" y="-14" relative="1" as="geometry">
            <mxPoint x="-18" y="36" as="offset" />
          </mxGeometry>
        </mxCell>
        <mxCell id="1hYtETjD09zAXA64R3j1-20" value="" style="curved=1;endArrow=classicThin;html=1;rounded=0;exitX=0.946;exitY=0.263;exitDx=0;exitDy=0;exitPerimeter=0;dashed=1;startArrow=none;startFill=0;endFill=1;strokeWidth=3;entryX=-0.067;entryY=0.9;entryDx=0;entryDy=0;entryPerimeter=0;" edge="1" parent="1" target="1hYtETjD09zAXA64R3j1-22">
          <mxGeometry width="50" height="50" relative="1" as="geometry">
            <mxPoint x="110" y="490" as="sourcePoint" />
            <mxPoint x="330" y="580" as="targetPoint" />
            <Array as="points">
              <mxPoint x="180" y="600" />
            </Array>
          </mxGeometry>
        </mxCell>
        <mxCell id="1hYtETjD09zAXA64R3j1-21" value="&lt;font style=&quot;font-size: 16px;&quot;&gt;Stimulation signal&lt;/font&gt;" style="edgeLabel;html=1;align=center;verticalAlign=middle;resizable=0;points=[];" vertex="1" connectable="0" parent="1hYtETjD09zAXA64R3j1-20">
          <mxGeometry x="0.2911" y="-14" relative="1" as="geometry">
            <mxPoint x="-85" y="-15" as="offset" />
          </mxGeometry>
        </mxCell>
        <mxCell id="1hYtETjD09zAXA64R3j1-22" value="Tactile response model" style="rounded=1;whiteSpace=wrap;html=1;" vertex="1" parent="1">
          <mxGeometry x="340" y="520" width="120" height="60" as="geometry" />
        </mxCell>
        <mxCell id="1hYtETjD09zAXA64R3j1-25" value="" style="curved=1;endArrow=none;html=1;rounded=0;startArrow=classic;startFill=1;endFill=0;strokeWidth=3;" edge="1" parent="1">
          <mxGeometry width="50" height="50" relative="1" as="geometry">
            <mxPoint x="340" y="460" as="sourcePoint" />
            <mxPoint x="340" y="540" as="targetPoint" />
            <Array as="points">
              <mxPoint x="300" y="470" />
              <mxPoint x="280" y="500" />
              <mxPoint x="300" y="530" />
            </Array>
          </mxGeometry>
        </mxCell>
      </root>
    </mxGraphModel>
  </diagram>
</mxfile>
